<mxfile host="app.diagrams.net" modified="2020-08-07T08:15:00.862Z" agent="5.0 (Macintosh; Intel Mac OS X 10_15_5) AppleWebKit/537.36 (KHTML, like Gecko) Chrome/84.0.4147.105 Safari/537.36" etag="D_Wq1p-342ZjXTd0QdeQ" version="13.5.8" type="github">
  <diagram id="5z8L-uXFoq8b2m6X6ftx" name="Page-1">
    <mxGraphModel dx="2066" dy="1154" grid="1" gridSize="10" guides="1" tooltips="1" connect="1" arrows="1" fold="1" page="1" pageScale="1" pageWidth="827" pageHeight="1169" math="0" shadow="0">
      <root>
        <mxCell id="0" />
        <mxCell id="1" parent="0" />
        <mxCell id="Mw_YcMtMVWkLKgRe6H_8-1" value="Process" style="whiteSpace=wrap;html=1;aspect=fixed;fillColor=#dae8fc;strokeColor=#6c8ebf;" vertex="1" parent="1">
          <mxGeometry x="110" y="310" width="80" height="80" as="geometry" />
        </mxCell>
        <mxCell id="Mw_YcMtMVWkLKgRe6H_8-2" value="" style="shape=table;html=1;whiteSpace=wrap;startSize=0;container=1;collapsible=0;childLayout=tableLayout;" vertex="1" parent="1">
          <mxGeometry x="680" y="120" width="60" height="600" as="geometry" />
        </mxCell>
        <mxCell id="Mw_YcMtMVWkLKgRe6H_8-31" style="shape=partialRectangle;html=1;whiteSpace=wrap;collapsible=0;dropTarget=0;pointerEvents=0;fillColor=none;top=0;left=0;bottom=0;right=0;points=[[0,0.5],[1,0.5]];portConstraint=eastwest;" vertex="1" parent="Mw_YcMtMVWkLKgRe6H_8-2">
          <mxGeometry width="60" height="40" as="geometry" />
        </mxCell>
        <mxCell id="Mw_YcMtMVWkLKgRe6H_8-32" style="shape=partialRectangle;html=1;whiteSpace=wrap;connectable=0;overflow=hidden;fillColor=#d5e8d4;top=0;left=0;bottom=0;right=0;strokeColor=#82b366;" vertex="1" parent="Mw_YcMtMVWkLKgRe6H_8-31">
          <mxGeometry width="60" height="40" as="geometry" />
        </mxCell>
        <mxCell id="Mw_YcMtMVWkLKgRe6H_8-29" style="shape=partialRectangle;html=1;whiteSpace=wrap;collapsible=0;dropTarget=0;pointerEvents=0;fillColor=none;top=0;left=0;bottom=0;right=0;points=[[0,0.5],[1,0.5]];portConstraint=eastwest;" vertex="1" parent="Mw_YcMtMVWkLKgRe6H_8-2">
          <mxGeometry y="40" width="60" height="40" as="geometry" />
        </mxCell>
        <mxCell id="Mw_YcMtMVWkLKgRe6H_8-30" style="shape=partialRectangle;html=1;whiteSpace=wrap;connectable=0;overflow=hidden;fillColor=#f8cecc;top=0;left=0;bottom=0;right=0;strokeColor=#b85450;" vertex="1" parent="Mw_YcMtMVWkLKgRe6H_8-29">
          <mxGeometry width="60" height="40" as="geometry" />
        </mxCell>
        <mxCell id="Mw_YcMtMVWkLKgRe6H_8-27" style="shape=partialRectangle;html=1;whiteSpace=wrap;collapsible=0;dropTarget=0;pointerEvents=0;fillColor=none;top=0;left=0;bottom=0;right=0;points=[[0,0.5],[1,0.5]];portConstraint=eastwest;" vertex="1" parent="Mw_YcMtMVWkLKgRe6H_8-2">
          <mxGeometry y="80" width="60" height="40" as="geometry" />
        </mxCell>
        <mxCell id="Mw_YcMtMVWkLKgRe6H_8-28" style="shape=partialRectangle;html=1;whiteSpace=wrap;connectable=0;overflow=hidden;fillColor=#d5e8d4;top=0;left=0;bottom=0;right=0;strokeColor=#82b366;" vertex="1" parent="Mw_YcMtMVWkLKgRe6H_8-27">
          <mxGeometry width="60" height="40" as="geometry" />
        </mxCell>
        <mxCell id="Mw_YcMtMVWkLKgRe6H_8-25" style="shape=partialRectangle;html=1;whiteSpace=wrap;collapsible=0;dropTarget=0;pointerEvents=0;fillColor=none;top=0;left=0;bottom=0;right=0;points=[[0,0.5],[1,0.5]];portConstraint=eastwest;" vertex="1" parent="Mw_YcMtMVWkLKgRe6H_8-2">
          <mxGeometry y="120" width="60" height="40" as="geometry" />
        </mxCell>
        <mxCell id="Mw_YcMtMVWkLKgRe6H_8-26" style="shape=partialRectangle;html=1;whiteSpace=wrap;connectable=0;overflow=hidden;fillColor=#d5e8d4;top=0;left=0;bottom=0;right=0;strokeColor=#82b366;" vertex="1" parent="Mw_YcMtMVWkLKgRe6H_8-25">
          <mxGeometry width="60" height="40" as="geometry" />
        </mxCell>
        <mxCell id="Mw_YcMtMVWkLKgRe6H_8-3" value="" style="shape=partialRectangle;html=1;whiteSpace=wrap;collapsible=0;dropTarget=0;pointerEvents=0;fillColor=none;top=0;left=0;bottom=0;right=0;points=[[0,0.5],[1,0.5]];portConstraint=eastwest;" vertex="1" parent="Mw_YcMtMVWkLKgRe6H_8-2">
          <mxGeometry y="160" width="60" height="40" as="geometry" />
        </mxCell>
        <mxCell id="Mw_YcMtMVWkLKgRe6H_8-4" value="" style="shape=partialRectangle;html=1;whiteSpace=wrap;connectable=0;overflow=hidden;fillColor=#f8cecc;top=0;left=0;bottom=0;right=0;strokeColor=#b85450;" vertex="1" parent="Mw_YcMtMVWkLKgRe6H_8-3">
          <mxGeometry width="60" height="40" as="geometry" />
        </mxCell>
        <mxCell id="Mw_YcMtMVWkLKgRe6H_8-5" value="" style="shape=partialRectangle;html=1;whiteSpace=wrap;collapsible=0;dropTarget=0;pointerEvents=0;fillColor=none;top=0;left=0;bottom=0;right=0;points=[[0,0.5],[1,0.5]];portConstraint=eastwest;" vertex="1" parent="Mw_YcMtMVWkLKgRe6H_8-2">
          <mxGeometry y="200" width="60" height="40" as="geometry" />
        </mxCell>
        <mxCell id="Mw_YcMtMVWkLKgRe6H_8-6" value="" style="shape=partialRectangle;html=1;whiteSpace=wrap;connectable=0;overflow=hidden;fillColor=#d5e8d4;top=0;left=0;bottom=0;right=0;strokeColor=#82b366;" vertex="1" parent="Mw_YcMtMVWkLKgRe6H_8-5">
          <mxGeometry width="60" height="40" as="geometry" />
        </mxCell>
        <mxCell id="Mw_YcMtMVWkLKgRe6H_8-7" value="" style="shape=partialRectangle;html=1;whiteSpace=wrap;collapsible=0;dropTarget=0;pointerEvents=0;fillColor=none;top=0;left=0;bottom=0;right=0;points=[[0,0.5],[1,0.5]];portConstraint=eastwest;" vertex="1" parent="Mw_YcMtMVWkLKgRe6H_8-2">
          <mxGeometry y="240" width="60" height="40" as="geometry" />
        </mxCell>
        <mxCell id="Mw_YcMtMVWkLKgRe6H_8-8" value="" style="shape=partialRectangle;html=1;whiteSpace=wrap;connectable=0;overflow=hidden;fillColor=#f8cecc;top=0;left=0;bottom=0;right=0;strokeColor=#b85450;" vertex="1" parent="Mw_YcMtMVWkLKgRe6H_8-7">
          <mxGeometry width="60" height="40" as="geometry" />
        </mxCell>
        <mxCell id="Mw_YcMtMVWkLKgRe6H_8-9" value="" style="shape=partialRectangle;html=1;whiteSpace=wrap;collapsible=0;dropTarget=0;pointerEvents=0;fillColor=none;top=0;left=0;bottom=0;right=0;points=[[0,0.5],[1,0.5]];portConstraint=eastwest;" vertex="1" parent="Mw_YcMtMVWkLKgRe6H_8-2">
          <mxGeometry y="280" width="60" height="40" as="geometry" />
        </mxCell>
        <mxCell id="Mw_YcMtMVWkLKgRe6H_8-10" value="" style="shape=partialRectangle;html=1;whiteSpace=wrap;connectable=0;overflow=hidden;fillColor=#d5e8d4;top=0;left=0;bottom=0;right=0;strokeColor=#82b366;" vertex="1" parent="Mw_YcMtMVWkLKgRe6H_8-9">
          <mxGeometry width="60" height="40" as="geometry" />
        </mxCell>
        <mxCell id="Mw_YcMtMVWkLKgRe6H_8-11" value="" style="shape=partialRectangle;html=1;whiteSpace=wrap;collapsible=0;dropTarget=0;pointerEvents=0;fillColor=none;top=0;left=0;bottom=0;right=0;points=[[0,0.5],[1,0.5]];portConstraint=eastwest;" vertex="1" parent="Mw_YcMtMVWkLKgRe6H_8-2">
          <mxGeometry y="320" width="60" height="40" as="geometry" />
        </mxCell>
        <mxCell id="Mw_YcMtMVWkLKgRe6H_8-12" value="" style="shape=partialRectangle;html=1;whiteSpace=wrap;connectable=0;overflow=hidden;fillColor=#f8cecc;top=0;left=0;bottom=0;right=0;strokeColor=#b85450;" vertex="1" parent="Mw_YcMtMVWkLKgRe6H_8-11">
          <mxGeometry width="60" height="40" as="geometry" />
        </mxCell>
        <mxCell id="Mw_YcMtMVWkLKgRe6H_8-13" value="" style="shape=partialRectangle;html=1;whiteSpace=wrap;collapsible=0;dropTarget=0;pointerEvents=0;fillColor=none;top=0;left=0;bottom=0;right=0;points=[[0,0.5],[1,0.5]];portConstraint=eastwest;" vertex="1" parent="Mw_YcMtMVWkLKgRe6H_8-2">
          <mxGeometry y="360" width="60" height="40" as="geometry" />
        </mxCell>
        <mxCell id="Mw_YcMtMVWkLKgRe6H_8-14" value="" style="shape=partialRectangle;html=1;whiteSpace=wrap;connectable=0;overflow=hidden;fillColor=#f8cecc;top=0;left=0;bottom=0;right=0;strokeColor=#b85450;" vertex="1" parent="Mw_YcMtMVWkLKgRe6H_8-13">
          <mxGeometry width="60" height="40" as="geometry" />
        </mxCell>
        <mxCell id="Mw_YcMtMVWkLKgRe6H_8-15" value="" style="shape=partialRectangle;html=1;whiteSpace=wrap;collapsible=0;dropTarget=0;pointerEvents=0;fillColor=none;top=0;left=0;bottom=0;right=0;points=[[0,0.5],[1,0.5]];portConstraint=eastwest;" vertex="1" parent="Mw_YcMtMVWkLKgRe6H_8-2">
          <mxGeometry y="400" width="60" height="40" as="geometry" />
        </mxCell>
        <mxCell id="Mw_YcMtMVWkLKgRe6H_8-16" value="" style="shape=partialRectangle;html=1;whiteSpace=wrap;connectable=0;overflow=hidden;fillColor=#d5e8d4;top=0;left=0;bottom=0;right=0;strokeColor=#82b366;" vertex="1" parent="Mw_YcMtMVWkLKgRe6H_8-15">
          <mxGeometry width="60" height="40" as="geometry" />
        </mxCell>
        <mxCell id="Mw_YcMtMVWkLKgRe6H_8-17" value="" style="shape=partialRectangle;html=1;whiteSpace=wrap;collapsible=0;dropTarget=0;pointerEvents=0;fillColor=none;top=0;left=0;bottom=0;right=0;points=[[0,0.5],[1,0.5]];portConstraint=eastwest;" vertex="1" parent="Mw_YcMtMVWkLKgRe6H_8-2">
          <mxGeometry y="440" width="60" height="40" as="geometry" />
        </mxCell>
        <mxCell id="Mw_YcMtMVWkLKgRe6H_8-18" value="" style="shape=partialRectangle;html=1;whiteSpace=wrap;connectable=0;overflow=hidden;fillColor=#f8cecc;top=0;left=0;bottom=0;right=0;strokeColor=#b85450;" vertex="1" parent="Mw_YcMtMVWkLKgRe6H_8-17">
          <mxGeometry width="60" height="40" as="geometry" />
        </mxCell>
        <mxCell id="Mw_YcMtMVWkLKgRe6H_8-19" value="" style="shape=partialRectangle;html=1;whiteSpace=wrap;collapsible=0;dropTarget=0;pointerEvents=0;fillColor=none;top=0;left=0;bottom=0;right=0;points=[[0,0.5],[1,0.5]];portConstraint=eastwest;" vertex="1" parent="Mw_YcMtMVWkLKgRe6H_8-2">
          <mxGeometry y="480" width="60" height="40" as="geometry" />
        </mxCell>
        <mxCell id="Mw_YcMtMVWkLKgRe6H_8-20" value="" style="shape=partialRectangle;html=1;whiteSpace=wrap;connectable=0;overflow=hidden;fillColor=none;top=0;left=0;bottom=0;right=0;" vertex="1" parent="Mw_YcMtMVWkLKgRe6H_8-19">
          <mxGeometry width="60" height="40" as="geometry" />
        </mxCell>
        <mxCell id="Mw_YcMtMVWkLKgRe6H_8-21" value="" style="shape=partialRectangle;html=1;whiteSpace=wrap;collapsible=0;dropTarget=0;pointerEvents=0;fillColor=none;top=0;left=0;bottom=0;right=0;points=[[0,0.5],[1,0.5]];portConstraint=eastwest;" vertex="1" parent="Mw_YcMtMVWkLKgRe6H_8-2">
          <mxGeometry y="520" width="60" height="40" as="geometry" />
        </mxCell>
        <mxCell id="Mw_YcMtMVWkLKgRe6H_8-22" value="" style="shape=partialRectangle;html=1;whiteSpace=wrap;connectable=0;overflow=hidden;fillColor=none;top=0;left=0;bottom=0;right=0;" vertex="1" parent="Mw_YcMtMVWkLKgRe6H_8-21">
          <mxGeometry width="60" height="40" as="geometry" />
        </mxCell>
        <mxCell id="Mw_YcMtMVWkLKgRe6H_8-23" style="shape=partialRectangle;html=1;whiteSpace=wrap;collapsible=0;dropTarget=0;pointerEvents=0;fillColor=none;top=0;left=0;bottom=0;right=0;points=[[0,0.5],[1,0.5]];portConstraint=eastwest;" vertex="1" parent="Mw_YcMtMVWkLKgRe6H_8-2">
          <mxGeometry y="560" width="60" height="40" as="geometry" />
        </mxCell>
        <mxCell id="Mw_YcMtMVWkLKgRe6H_8-24" style="shape=partialRectangle;html=1;whiteSpace=wrap;connectable=0;overflow=hidden;fillColor=none;top=0;left=0;bottom=0;right=0;" vertex="1" parent="Mw_YcMtMVWkLKgRe6H_8-23">
          <mxGeometry width="60" height="40" as="geometry" />
        </mxCell>
        <mxCell id="Mw_YcMtMVWkLKgRe6H_8-33" value="" style="shape=table;html=1;whiteSpace=wrap;startSize=0;container=1;collapsible=0;childLayout=tableLayout;fillColor=#f8cecc;strokeColor=#b85450;" vertex="1" parent="1">
          <mxGeometry x="280" y="480" width="60" height="240" as="geometry" />
        </mxCell>
        <mxCell id="Mw_YcMtMVWkLKgRe6H_8-34" value="" style="shape=partialRectangle;html=1;whiteSpace=wrap;collapsible=0;dropTarget=0;pointerEvents=0;fillColor=none;top=0;left=0;bottom=0;right=0;points=[[0,0.5],[1,0.5]];portConstraint=eastwest;" vertex="1" parent="Mw_YcMtMVWkLKgRe6H_8-33">
          <mxGeometry width="60" height="40" as="geometry" />
        </mxCell>
        <mxCell id="Mw_YcMtMVWkLKgRe6H_8-35" value="1" style="shape=partialRectangle;html=1;whiteSpace=wrap;connectable=0;overflow=hidden;fillColor=none;top=0;left=0;bottom=0;right=0;" vertex="1" parent="Mw_YcMtMVWkLKgRe6H_8-34">
          <mxGeometry width="60" height="40" as="geometry" />
        </mxCell>
        <mxCell id="Mw_YcMtMVWkLKgRe6H_8-36" value="" style="shape=partialRectangle;html=1;whiteSpace=wrap;collapsible=0;dropTarget=0;pointerEvents=0;fillColor=none;top=0;left=0;bottom=0;right=0;points=[[0,0.5],[1,0.5]];portConstraint=eastwest;" vertex="1" parent="Mw_YcMtMVWkLKgRe6H_8-33">
          <mxGeometry y="40" width="60" height="40" as="geometry" />
        </mxCell>
        <mxCell id="Mw_YcMtMVWkLKgRe6H_8-37" value="2" style="shape=partialRectangle;html=1;whiteSpace=wrap;connectable=0;overflow=hidden;fillColor=none;top=0;left=0;bottom=0;right=0;" vertex="1" parent="Mw_YcMtMVWkLKgRe6H_8-36">
          <mxGeometry width="60" height="40" as="geometry" />
        </mxCell>
        <mxCell id="Mw_YcMtMVWkLKgRe6H_8-38" value="" style="shape=partialRectangle;html=1;whiteSpace=wrap;collapsible=0;dropTarget=0;pointerEvents=0;fillColor=none;top=0;left=0;bottom=0;right=0;points=[[0,0.5],[1,0.5]];portConstraint=eastwest;" vertex="1" parent="Mw_YcMtMVWkLKgRe6H_8-33">
          <mxGeometry y="80" width="60" height="40" as="geometry" />
        </mxCell>
        <mxCell id="Mw_YcMtMVWkLKgRe6H_8-39" value="3" style="shape=partialRectangle;html=1;whiteSpace=wrap;connectable=0;overflow=hidden;fillColor=none;top=0;left=0;bottom=0;right=0;" vertex="1" parent="Mw_YcMtMVWkLKgRe6H_8-38">
          <mxGeometry width="60" height="40" as="geometry" />
        </mxCell>
        <mxCell id="Mw_YcMtMVWkLKgRe6H_8-40" value="" style="shape=partialRectangle;html=1;whiteSpace=wrap;collapsible=0;dropTarget=0;pointerEvents=0;fillColor=none;top=0;left=0;bottom=0;right=0;points=[[0,0.5],[1,0.5]];portConstraint=eastwest;" vertex="1" parent="Mw_YcMtMVWkLKgRe6H_8-33">
          <mxGeometry y="120" width="60" height="40" as="geometry" />
        </mxCell>
        <mxCell id="Mw_YcMtMVWkLKgRe6H_8-41" value="4" style="shape=partialRectangle;html=1;whiteSpace=wrap;connectable=0;overflow=hidden;fillColor=none;top=0;left=0;bottom=0;right=0;" vertex="1" parent="Mw_YcMtMVWkLKgRe6H_8-40">
          <mxGeometry width="60" height="40" as="geometry" />
        </mxCell>
        <mxCell id="Mw_YcMtMVWkLKgRe6H_8-42" value="" style="shape=partialRectangle;html=1;whiteSpace=wrap;collapsible=0;dropTarget=0;pointerEvents=0;fillColor=none;top=0;left=0;bottom=0;right=0;points=[[0,0.5],[1,0.5]];portConstraint=eastwest;" vertex="1" parent="Mw_YcMtMVWkLKgRe6H_8-33">
          <mxGeometry y="160" width="60" height="40" as="geometry" />
        </mxCell>
        <mxCell id="Mw_YcMtMVWkLKgRe6H_8-43" value="5" style="shape=partialRectangle;html=1;whiteSpace=wrap;connectable=0;overflow=hidden;fillColor=none;top=0;left=0;bottom=0;right=0;" vertex="1" parent="Mw_YcMtMVWkLKgRe6H_8-42">
          <mxGeometry width="60" height="40" as="geometry" />
        </mxCell>
        <mxCell id="Mw_YcMtMVWkLKgRe6H_8-44" value="" style="shape=partialRectangle;html=1;whiteSpace=wrap;collapsible=0;dropTarget=0;pointerEvents=0;fillColor=none;top=0;left=0;bottom=0;right=0;points=[[0,0.5],[1,0.5]];portConstraint=eastwest;" vertex="1" parent="Mw_YcMtMVWkLKgRe6H_8-33">
          <mxGeometry y="200" width="60" height="40" as="geometry" />
        </mxCell>
        <mxCell id="Mw_YcMtMVWkLKgRe6H_8-45" value="6" style="shape=partialRectangle;html=1;whiteSpace=wrap;connectable=0;overflow=hidden;fillColor=none;top=0;left=0;bottom=0;right=0;" vertex="1" parent="Mw_YcMtMVWkLKgRe6H_8-44">
          <mxGeometry width="60" height="40" as="geometry" />
        </mxCell>
        <mxCell id="Mw_YcMtMVWkLKgRe6H_8-46" value="" style="shape=table;html=1;whiteSpace=wrap;startSize=0;container=1;collapsible=0;childLayout=tableLayout;fillColor=#d5e8d4;strokeColor=#82b366;" vertex="1" parent="1">
          <mxGeometry x="400" y="480" width="60" height="240" as="geometry" />
        </mxCell>
        <mxCell id="Mw_YcMtMVWkLKgRe6H_8-47" value="" style="shape=partialRectangle;html=1;whiteSpace=wrap;collapsible=0;dropTarget=0;pointerEvents=0;fillColor=none;top=0;left=0;bottom=0;right=0;points=[[0,0.5],[1,0.5]];portConstraint=eastwest;" vertex="1" parent="Mw_YcMtMVWkLKgRe6H_8-46">
          <mxGeometry width="60" height="40" as="geometry" />
        </mxCell>
        <mxCell id="Mw_YcMtMVWkLKgRe6H_8-48" value="1" style="shape=partialRectangle;html=1;whiteSpace=wrap;connectable=0;overflow=hidden;fillColor=none;top=0;left=0;bottom=0;right=0;" vertex="1" parent="Mw_YcMtMVWkLKgRe6H_8-47">
          <mxGeometry width="60" height="40" as="geometry" />
        </mxCell>
        <mxCell id="Mw_YcMtMVWkLKgRe6H_8-49" value="" style="shape=partialRectangle;html=1;whiteSpace=wrap;collapsible=0;dropTarget=0;pointerEvents=0;fillColor=none;top=0;left=0;bottom=0;right=0;points=[[0,0.5],[1,0.5]];portConstraint=eastwest;" vertex="1" parent="Mw_YcMtMVWkLKgRe6H_8-46">
          <mxGeometry y="40" width="60" height="40" as="geometry" />
        </mxCell>
        <mxCell id="Mw_YcMtMVWkLKgRe6H_8-50" value="2" style="shape=partialRectangle;html=1;whiteSpace=wrap;connectable=0;overflow=hidden;fillColor=none;top=0;left=0;bottom=0;right=0;" vertex="1" parent="Mw_YcMtMVWkLKgRe6H_8-49">
          <mxGeometry width="60" height="40" as="geometry" />
        </mxCell>
        <mxCell id="Mw_YcMtMVWkLKgRe6H_8-51" value="" style="shape=partialRectangle;html=1;whiteSpace=wrap;collapsible=0;dropTarget=0;pointerEvents=0;fillColor=none;top=0;left=0;bottom=0;right=0;points=[[0,0.5],[1,0.5]];portConstraint=eastwest;" vertex="1" parent="Mw_YcMtMVWkLKgRe6H_8-46">
          <mxGeometry y="80" width="60" height="40" as="geometry" />
        </mxCell>
        <mxCell id="Mw_YcMtMVWkLKgRe6H_8-52" value="3" style="shape=partialRectangle;html=1;whiteSpace=wrap;connectable=0;overflow=hidden;fillColor=none;top=0;left=0;bottom=0;right=0;" vertex="1" parent="Mw_YcMtMVWkLKgRe6H_8-51">
          <mxGeometry width="60" height="40" as="geometry" />
        </mxCell>
        <mxCell id="Mw_YcMtMVWkLKgRe6H_8-53" value="" style="shape=partialRectangle;html=1;whiteSpace=wrap;collapsible=0;dropTarget=0;pointerEvents=0;fillColor=none;top=0;left=0;bottom=0;right=0;points=[[0,0.5],[1,0.5]];portConstraint=eastwest;" vertex="1" parent="Mw_YcMtMVWkLKgRe6H_8-46">
          <mxGeometry y="120" width="60" height="40" as="geometry" />
        </mxCell>
        <mxCell id="Mw_YcMtMVWkLKgRe6H_8-54" value="4" style="shape=partialRectangle;html=1;whiteSpace=wrap;connectable=0;overflow=hidden;fillColor=none;top=0;left=0;bottom=0;right=0;" vertex="1" parent="Mw_YcMtMVWkLKgRe6H_8-53">
          <mxGeometry width="60" height="40" as="geometry" />
        </mxCell>
        <mxCell id="Mw_YcMtMVWkLKgRe6H_8-55" value="" style="shape=partialRectangle;html=1;whiteSpace=wrap;collapsible=0;dropTarget=0;pointerEvents=0;fillColor=none;top=0;left=0;bottom=0;right=0;points=[[0,0.5],[1,0.5]];portConstraint=eastwest;" vertex="1" parent="Mw_YcMtMVWkLKgRe6H_8-46">
          <mxGeometry y="160" width="60" height="40" as="geometry" />
        </mxCell>
        <mxCell id="Mw_YcMtMVWkLKgRe6H_8-56" value="5" style="shape=partialRectangle;html=1;whiteSpace=wrap;connectable=0;overflow=hidden;fillColor=none;top=0;left=0;bottom=0;right=0;" vertex="1" parent="Mw_YcMtMVWkLKgRe6H_8-55">
          <mxGeometry width="60" height="40" as="geometry" />
        </mxCell>
        <mxCell id="Mw_YcMtMVWkLKgRe6H_8-57" value="" style="shape=partialRectangle;html=1;whiteSpace=wrap;collapsible=0;dropTarget=0;pointerEvents=0;fillColor=none;top=0;left=0;bottom=0;right=0;points=[[0,0.5],[1,0.5]];portConstraint=eastwest;" vertex="1" parent="Mw_YcMtMVWkLKgRe6H_8-46">
          <mxGeometry y="200" width="60" height="40" as="geometry" />
        </mxCell>
        <mxCell id="Mw_YcMtMVWkLKgRe6H_8-58" value="6" style="shape=partialRectangle;html=1;whiteSpace=wrap;connectable=0;overflow=hidden;fillColor=none;top=0;left=0;bottom=0;right=0;" vertex="1" parent="Mw_YcMtMVWkLKgRe6H_8-57">
          <mxGeometry width="60" height="40" as="geometry" />
        </mxCell>
        <mxCell id="Mw_YcMtMVWkLKgRe6H_8-59" value="&lt;font style=&quot;font-size: 18px&quot;&gt;RAM&lt;/font&gt;" style="text;html=1;align=center;verticalAlign=middle;resizable=0;points=[];autosize=1;" vertex="1" parent="1">
          <mxGeometry x="680" y="90" width="60" height="20" as="geometry" />
        </mxCell>
        <mxCell id="Mw_YcMtMVWkLKgRe6H_8-60" value="&lt;font style=&quot;font-size: 21px&quot;&gt;Kernel&lt;/font&gt;" style="text;html=1;align=center;verticalAlign=middle;resizable=0;points=[];autosize=1;rotation=270;" vertex="1" parent="1">
          <mxGeometry x="725" y="670" width="80" height="20" as="geometry" />
        </mxCell>
        <mxCell id="Mw_YcMtMVWkLKgRe6H_8-61" value="Virtual Memory Map" style="text;html=1;align=center;verticalAlign=middle;resizable=0;points=[];autosize=1;" vertex="1" parent="1">
          <mxGeometry x="280" y="430" width="120" height="20" as="geometry" />
        </mxCell>
        <mxCell id="Mw_YcMtMVWkLKgRe6H_8-62" value="Virtual Memory Map" style="text;html=1;align=center;verticalAlign=middle;resizable=0;points=[];autosize=1;" vertex="1" parent="1">
          <mxGeometry x="400" y="430" width="120" height="20" as="geometry" />
        </mxCell>
      </root>
    </mxGraphModel>
  </diagram>
</mxfile>
